<?xml version="1.0" encoding="utf-8"?>
<!-- Generator: Adobe Illustrator 16.0.0, SVG Export Plug-In . SVG Version: 6.00 Build 0)  -->
<!DOCTYPE svg PUBLIC "-//W3C//DTD SVG 1.1//EN" "http://www.w3.org/Graphics/SVG/1.1/DTD/svg11.dtd">
<svg version="1.1" id="Ebene_1" xmlns:sketch="http://www.bohemiancoding.com/sketch/ns"
	 xmlns="http://www.w3.org/2000/svg" xmlns:xlink="http://www.w3.org/1999/xlink" x="0px" y="0px" width="48px" height="48px"
	 viewBox="0 0 48 48" enable-background="new 0 0 48 48" xml:space="preserve">
<g enable-background="new    ">
	<g>
		<defs>
			<rect id="SVGID_1_" x="48" y="2578" width="33" height="30"/>
		</defs>
		<clipPath id="SVGID_2_">
			<use xlink:href="#SVGID_1_"  overflow="visible"/>
		</clipPath>
		<g clip-path="url(#SVGID_2_)">
			<defs>
				<rect id="SVGID_3_" x="-448" y="-2744" width="1024" height="5514"/>
			</defs>
			<clipPath id="SVGID_4_">
				<use xlink:href="#SVGID_3_"  overflow="visible"/>
			</clipPath>
			<g clip-path="url(#SVGID_4_)">
				<defs>
					<polyline id="SVGID_5_" points="64.37,2578.377 80.118,2606.604 48.623,2607.118 					"/>
				</defs>
				<clipPath id="SVGID_6_">
					<use xlink:href="#SVGID_5_"  overflow="visible"/>
				</clipPath>
				<g clip-path="url(#SVGID_6_)">
					<defs>
						<rect id="SVGID_7_" x="48" y="2578" width="33" height="30"/>
					</defs>
					<clipPath id="SVGID_8_">
						<use xlink:href="#SVGID_7_"  overflow="visible"/>
					</clipPath>
					<rect x="43.623" y="2573.377" clip-path="url(#SVGID_8_)" fill="#1243A4" width="41.495" height="38.741"/>
				</g>
			</g>
		</g>
	</g>
</g>
<g enable-background="new    ">
	<g>
		<defs>
			<rect id="SVGID_9_" x="4" y="2695" width="48" height="48"/>
		</defs>
		<clipPath id="SVGID_10_">
			<use xlink:href="#SVGID_9_"  overflow="visible"/>
		</clipPath>
		<g clip-path="url(#SVGID_10_)">
			<defs>
				<rect id="SVGID_11_" x="-448" y="-2744" width="1024" height="5514"/>
			</defs>
			<clipPath id="SVGID_12_">
				<use xlink:href="#SVGID_11_"  overflow="visible"/>
			</clipPath>
			<g clip-path="url(#SVGID_12_)">
				<defs>
					<path id="SVGID_13_" d="M4,2718.736c0,13.109,10.615,23.736,23.713,23.736c13.096,0,23.712-10.627,23.712-23.736
						S40.809,2695,27.713,2695C14.615,2695,4,2705.627,4,2718.736"/>
				</defs>
				<clipPath id="SVGID_14_">
					<use xlink:href="#SVGID_13_"  overflow="visible"/>
				</clipPath>
				<g clip-path="url(#SVGID_14_)">
					<defs>
						<rect id="SVGID_15_" x="4" y="2695" width="48" height="48"/>
					</defs>
					<clipPath id="SVGID_16_">
						<use xlink:href="#SVGID_15_"  overflow="visible"/>
					</clipPath>
					<rect x="-1" y="2690" clip-path="url(#SVGID_16_)" fill="#2DA071" width="57.425" height="57.473"/>
				</g>
			</g>
		</g>
		<g clip-path="url(#SVGID_10_)">
			<defs>
				<rect id="SVGID_17_" x="-448" y="-2744" width="1024" height="5514"/>
			</defs>
			<clipPath id="SVGID_18_">
				<use xlink:href="#SVGID_17_"  overflow="visible"/>
			</clipPath>
			<g clip-path="url(#SVGID_18_)">
				<defs>
					<path id="SVGID_19_" d="M30.895,2726.549c0-1.164-0.062-2.821-1.256-3.76c3.813-0.591,6.886-2.85,6.886-6.413
						c0-1.46-0.52-2.933-1.574-4.126c0.307-1.359,0.51-3.03-0.087-4.25c-1.51,0.127-2.977,0.897-4.083,1.586
						c-0.93-0.225-1.904-0.394-2.987-0.394c-1.08,0-2.061,0.169-2.99,0.394c-1.108-0.688-2.589-1.459-4.101-1.586
						c-0.597,1.22-0.455,2.891-0.122,4.25c-1.056,1.193-1.649,2.666-1.649,4.126c0,3.563,2.996,5.822,6.809,6.413
						c-0.568,0.434-0.927,1.038-1.148,1.64c-2.967,0.057-5.362-2.328-5.39-2.328c-0.138-0.141-0.324-0.168-0.448-0.071
						c-0.167,0.1,0.068,0.295,0.113,0.463c0.055,0.143,0.784,3.565,6.031,4.925v2.352h5.997V2726.549"/>
				</defs>
				<clipPath id="SVGID_20_">
					<use xlink:href="#SVGID_19_"  overflow="visible"/>
				</clipPath>
				<g clip-path="url(#SVGID_20_)">
					<defs>
						<rect id="SVGID_21_" x="4" y="2695" width="48" height="48"/>
					</defs>
					<clipPath id="SVGID_22_">
						<use xlink:href="#SVGID_21_"  overflow="visible"/>
					</clipPath>
					<rect x="13.694" y="2703" clip-path="url(#SVGID_22_)" fill="#2DA071" width="27.83" height="31.769"/>
				</g>
			</g>
		</g>
	</g>
</g>
<path fill="#2DA071" d="M23.713,0C10.615,0,0,10.627,0,23.736c0,13.109,10.615,23.736,23.713,23.736
	c13.096,0,23.712-10.627,23.712-23.736C47.425,10.627,36.809,0,23.713,0z M25.639,27.789c1.194,0.938,1.256,2.596,1.256,3.76v3.22
	h-5.997v-2.352c-5.247-1.359-5.977-4.782-6.031-4.925c-0.045-0.168-0.28-0.363-0.113-0.463c0.124-0.097,0.311-0.069,0.448,0.071
	c0.027,0,2.423,2.385,5.39,2.328c0.222-0.602,0.58-1.206,1.148-1.64c-3.812-0.591-6.809-2.85-6.809-6.413
	c0-1.46,0.594-2.932,1.649-4.125c-0.333-1.359-0.475-3.031,0.122-4.25c1.512,0.126,2.992,0.897,4.101,1.586
	c0.93-0.225,1.91-0.394,2.99-0.394c1.083,0,2.058,0.169,2.987,0.394c1.106-0.689,2.573-1.46,4.083-1.586
	c0.597,1.22,0.394,2.891,0.087,4.25c1.055,1.193,1.574,2.666,1.574,4.125C32.524,24.939,29.452,27.198,25.639,27.789z"/>
<path fill="#167F4F" d="M30.863,13c-1.51,0.126-2.977,0.897-4.083,1.586c-0.93-0.225-1.904-0.394-2.987-0.394
	c-1.08,0-2.061,0.169-2.99,0.394c-1.108-0.689-2.589-1.46-4.101-1.586c-0.597,1.22-0.455,2.891-0.122,4.25
	c-1.056,1.193-1.649,2.666-1.649,4.125c0,3.563,2.996,5.822,6.809,6.413c-0.568,0.434-0.927,1.038-1.148,1.64
	c-2.967,0.057-5.362-2.328-5.39-2.328c-0.138-0.141-0.324-0.168-0.448-0.071c-0.167,0.1,0.068,0.295,0.113,0.463
	c0.055,0.143,0.784,3.565,6.031,4.925v2.352h5.997v-3.22c0-1.164-0.062-2.821-1.256-3.76c3.813-0.591,6.886-2.85,6.886-6.413
	c0-1.46-0.52-2.932-1.574-4.125C31.257,15.891,31.46,14.22,30.863,13z"/>
</svg>
