<?xml version="1.0" encoding="utf-8"?>
<!-- Generator: Adobe Illustrator 16.0.0, SVG Export Plug-In . SVG Version: 6.00 Build 0)  -->
<!DOCTYPE svg PUBLIC "-//W3C//DTD SVG 1.1//EN" "http://www.w3.org/Graphics/SVG/1.1/DTD/svg11.dtd">
<svg version="1.1" id="Ebene_1" xmlns:sketch="http://www.bohemiancoding.com/sketch/ns"
	 xmlns="http://www.w3.org/2000/svg" xmlns:xlink="http://www.w3.org/1999/xlink" x="0px" y="0px" width="48px" height="48px"
	 viewBox="0 0 48 48" enable-background="new 0 0 48 48" xml:space="preserve">
<g enable-background="new    ">
	<g>
		<defs>
			<rect id="SVGID_1_" x="48" y="2578" width="33" height="30"/>
		</defs>
		<clipPath id="SVGID_2_">
			<use xlink:href="#SVGID_1_"  overflow="visible"/>
		</clipPath>
		<g clip-path="url(#SVGID_2_)">
			<defs>
				<rect id="SVGID_3_" x="-448" y="-2744" width="1024" height="5514"/>
			</defs>
			<clipPath id="SVGID_4_">
				<use xlink:href="#SVGID_3_"  overflow="visible"/>
			</clipPath>
			<g clip-path="url(#SVGID_4_)">
				<defs>
					<polyline id="SVGID_5_" points="64.37,2578.377 80.118,2606.604 48.623,2607.118 					"/>
				</defs>
				<clipPath id="SVGID_6_">
					<use xlink:href="#SVGID_5_"  overflow="visible"/>
				</clipPath>
				<g clip-path="url(#SVGID_6_)">
					<defs>
						<rect id="SVGID_7_" x="48" y="2578" width="33" height="30"/>
					</defs>
					<clipPath id="SVGID_8_">
						<use xlink:href="#SVGID_7_"  overflow="visible"/>
					</clipPath>
					<rect x="43.623" y="2573.377" clip-path="url(#SVGID_8_)" fill="#1243A4" width="41.495" height="38.741"/>
				</g>
			</g>
		</g>
	</g>
</g>
<g enable-background="new    ">
	<g>
		<defs>
			<rect id="SVGID_9_" x="4" y="2695" width="48" height="48"/>
		</defs>
		<clipPath id="SVGID_10_">
			<use xlink:href="#SVGID_9_"  overflow="visible"/>
		</clipPath>
		<g clip-path="url(#SVGID_10_)">
			<defs>
				<rect id="SVGID_11_" x="-448" y="-2744" width="1024" height="5514"/>
			</defs>
			<clipPath id="SVGID_12_">
				<use xlink:href="#SVGID_11_"  overflow="visible"/>
			</clipPath>
			<g clip-path="url(#SVGID_12_)">
				<defs>
					<path id="SVGID_13_" d="M4,2718.736c0,13.109,10.615,23.736,23.713,23.736c13.096,0,23.712-10.627,23.712-23.736
						S40.809,2695,27.713,2695C14.615,2695,4,2705.627,4,2718.736"/>
				</defs>
				<clipPath id="SVGID_14_">
					<use xlink:href="#SVGID_13_"  overflow="visible"/>
				</clipPath>
				<g clip-path="url(#SVGID_14_)">
					<defs>
						<rect id="SVGID_15_" x="4" y="2695" width="48" height="48"/>
					</defs>
					<clipPath id="SVGID_16_">
						<use xlink:href="#SVGID_15_"  overflow="visible"/>
					</clipPath>
					<rect x="-1" y="2690" clip-path="url(#SVGID_16_)" fill="#2DA071" width="57.425" height="57.473"/>
				</g>
			</g>
		</g>
		<g clip-path="url(#SVGID_10_)">
			<defs>
				<rect id="SVGID_17_" x="-448" y="-2744" width="1024" height="5514"/>
			</defs>
			<clipPath id="SVGID_18_">
				<use xlink:href="#SVGID_17_"  overflow="visible"/>
			</clipPath>
			<g clip-path="url(#SVGID_18_)">
				<defs>
					<path id="SVGID_19_" d="M30.895,2726.549c0-1.164-0.062-2.821-1.256-3.76c3.813-0.591,6.886-2.85,6.886-6.413
						c0-1.46-0.52-2.933-1.574-4.126c0.307-1.359,0.51-3.03-0.087-4.25c-1.51,0.127-2.977,0.897-4.083,1.586
						c-0.93-0.225-1.904-0.394-2.987-0.394c-1.08,0-2.061,0.169-2.99,0.394c-1.108-0.688-2.589-1.459-4.101-1.586
						c-0.597,1.22-0.455,2.891-0.122,4.25c-1.056,1.193-1.649,2.666-1.649,4.126c0,3.563,2.996,5.822,6.809,6.413
						c-0.568,0.434-0.927,1.038-1.148,1.64c-2.967,0.057-5.362-2.328-5.39-2.328c-0.138-0.141-0.324-0.168-0.448-0.071
						c-0.167,0.1,0.068,0.295,0.113,0.463c0.055,0.143,0.784,3.565,6.031,4.925v2.352h5.997V2726.549"/>
				</defs>
				<clipPath id="SVGID_20_">
					<use xlink:href="#SVGID_19_"  overflow="visible"/>
				</clipPath>
				<g clip-path="url(#SVGID_20_)">
					<defs>
						<rect id="SVGID_21_" x="4" y="2695" width="48" height="48"/>
					</defs>
					<clipPath id="SVGID_22_">
						<use xlink:href="#SVGID_21_"  overflow="visible"/>
					</clipPath>
					<rect x="13.694" y="2703" clip-path="url(#SVGID_22_)" fill="#2DA071" width="27.83" height="31.769"/>
				</g>
			</g>
		</g>
	</g>
</g>
<g enable-background="new    ">
	<g>
		<defs>
			<rect id="SVGID_23_" x="-61" y="2695" width="48" height="47"/>
		</defs>
		<clipPath id="SVGID_24_">
			<use xlink:href="#SVGID_23_"  overflow="visible"/>
		</clipPath>
		<g clip-path="url(#SVGID_24_)">
			<defs>
				<rect id="SVGID_25_" x="-448" y="-2744" width="1024" height="5514"/>
			</defs>
			<clipPath id="SVGID_26_">
				<use xlink:href="#SVGID_25_"  overflow="visible"/>
			</clipPath>
			<g clip-path="url(#SVGID_26_)">
				<defs>
					<path id="SVGID_27_" d="M-61,2718.354c0,12.897,10.661,23.354,23.816,23.354c13.153,0,23.815-10.456,23.815-23.354
						S-24.03,2695-37.184,2695C-50.339,2695-61,2705.456-61,2718.354"/>
				</defs>
				<clipPath id="SVGID_28_">
					<use xlink:href="#SVGID_27_"  overflow="visible"/>
				</clipPath>
				<g clip-path="url(#SVGID_28_)">
					<defs>
						<rect id="SVGID_29_" x="-61" y="2695" width="48" height="47"/>
					</defs>
					<clipPath id="SVGID_30_">
						<use xlink:href="#SVGID_29_"  overflow="visible"/>
					</clipPath>
					<rect x="-66" y="2690" clip-path="url(#SVGID_30_)" fill="#1243A4" width="57.632" height="56.707"/>
				</g>
			</g>
		</g>
		<g clip-path="url(#SVGID_24_)">
			<defs>
				<rect id="SVGID_31_" x="-448" y="-2744" width="1024" height="5514"/>
			</defs>
			<clipPath id="SVGID_32_">
				<use xlink:href="#SVGID_31_"  overflow="visible"/>
			</clipPath>
			<g clip-path="url(#SVGID_32_)">
				<defs>
					<path id="SVGID_33_" d="M-34.416,2719.166h2.29l0.526-4.004h-2.816v-3.277c0-1.051-0.293-2.33,0.771-2.33h2.43v-2.699
						c0,0-1.548-0.242-3.082-0.242c-3.492,0-5.722,1.947-5.722,4.832v3.717h-2.4v4.004h2.4v10.412h5.603V2719.166"/>
				</defs>
				<clipPath id="SVGID_34_">
					<use xlink:href="#SVGID_33_"  overflow="visible"/>
				</clipPath>
				<g clip-path="url(#SVGID_34_)">
					<defs>
						<rect id="SVGID_35_" x="-61" y="2695" width="48" height="47"/>
					</defs>
					<clipPath id="SVGID_36_">
						<use xlink:href="#SVGID_35_"  overflow="visible"/>
					</clipPath>
					<rect x="-47.419" y="2701.613" clip-path="url(#SVGID_36_)" fill="#1243A4" width="21.204" height="32.964"/>
				</g>
			</g>
		</g>
	</g>
</g>
<path fill="#D82A3F" d="M23.713,0C10.615,0,0,10.627,0,23.736c0,13.109,10.615,23.736,23.713,23.736
	c13.096,0,23.712-10.627,23.712-23.736C47.425,10.627,36.809,0,23.713,0z M13.016,15.777c0-0.174,0.02-0.341,0.051-0.504
	c0.239-1.252,1.361-2.156,2.96-2.156c1.488,0,2.5,0.744,2.868,1.811c0.039,0.113,0.079,0.225,0.103,0.345
	c0.033,0.163,0.055,0.33,0.059,0.502c-0.001,1.43-1.114,2.604-2.885,2.667c-0.05,0.002-0.094,0.012-0.145,0.012h-0.035
	C14.185,18.455,13.016,17.249,13.016,15.777z M16.171,33h-2.263v-9.545v-3.182h2.263h2.276v3.182V33H16.171z M34.789,33H30.25
	v-6.261c0-2.306-0.925-3.034-2.306-3.034c-1.398,0-2.234,1.19-2.234,3.034V33h-2.263h-2.276v-9.294c0,0,0.002-0.094,0.006-0.251
	c0.015-0.66,0.051-2.447,0.021-3.182h2.249h0.608h1.642l0.139,2.179c0.005-0.015,0.011,0.115,0.018,0.099l0.003,0.045
	c0.175-0.49,0.416-0.928,0.716-1.303c0.032-0.041,0.063-0.081,0.1-0.121c0.054-0.062,0.103-0.123,0.16-0.182
	c0.688-0.671,1.604-1.062,2.73-1.062c3.241,0,5.227,2.643,5.227,6.811V33z"/>
<path fill="#B70B28" d="M18.997,15.273c-0.024-0.12-0.063-0.232-0.103-0.345c-0.368-1.067-1.379-1.811-2.868-1.811
	c-1.599,0-2.721,0.904-2.96,2.156c-0.031,0.163-0.051,0.331-0.051,0.504c0,1.472,1.169,2.677,2.976,2.677h0.035
	c0.051,0,0.095-0.01,0.145-0.012c1.771-0.063,2.884-1.237,2.885-2.667C19.052,15.603,19.029,15.436,18.997,15.273z"/>
<polygon fill="#B70B28" points="16.171,20.273 13.908,20.273 13.908,23.455 13.908,33 16.171,33 18.447,33 18.447,23.455 
	18.447,20.273 "/>
<path fill="#B70B28" d="M29.562,19.928c-1.126,0-2.043,0.391-2.73,1.062c-0.058,0.059-0.106,0.12-0.16,0.182
	c-0.036,0.04-0.067,0.08-0.1,0.121c-0.3,0.375-0.541,0.813-0.716,1.303l-0.003-0.045c-0.007,0.016-0.013-0.114-0.018-0.099
	l-0.139-2.179h-1.642h-0.608h-2.249c0.03,0.734-0.006,2.522-0.021,3.182c-0.003,0.157-0.006,0.251-0.006,0.251V33h2.276h2.263
	v-6.261c0-1.844,0.836-3.034,2.234-3.034c1.381,0,2.306,0.728,2.306,3.034V33h4.539v-6.261
	C34.789,22.571,32.804,19.928,29.562,19.928z"/>
</svg>
