<?xml version="1.0" encoding="utf-8"?>
<!-- Generator: Adobe Illustrator 16.0.0, SVG Export Plug-In . SVG Version: 6.00 Build 0)  -->
<!DOCTYPE svg PUBLIC "-//W3C//DTD SVG 1.1//EN" "http://www.w3.org/Graphics/SVG/1.1/DTD/svg11.dtd">
<svg version="1.1" id="Ebene_1" xmlns:sketch="http://www.bohemiancoding.com/sketch/ns"
	 xmlns="http://www.w3.org/2000/svg" xmlns:xlink="http://www.w3.org/1999/xlink" x="0px" y="0px" width="48px" height="48px"
	 viewBox="0 0 48 48" enable-background="new 0 0 48 48" xml:space="preserve">
<path fill="#F8CC46" d="M23.937,0.382C10.782,0.382,0.12,10.838,0.12,23.735S10.782,47.09,23.937,47.09
	c13.153,0,23.815-10.457,23.815-23.354S37.09,0.382,23.937,0.382z M31.818,19.604v0.605c0,6.121-4.496,13.181-13.113,13.181
	c-2.621,0-4.915-0.717-6.973-2.04c0.337,0.032,0.73,0.079,1.099,0.079c2.22,0,4.21-0.876,5.818-2.119
	c-2.026-0.031-3.75-1.292-4.328-3.141c0.273,0.049,0.635,0.08,0.94,0.08c0.418,0,0.95-0.031,1.334-0.144
	c-2.137-0.462-3.52-2.311-3.52-4.574v-0.048c0.694,0.351,1.109,0.575,1.881,0.575c-1.254-0.829-2.284-2.232-2.284-3.857
	c0-0.829,0.225-1.625,0.611-2.343c2.316,2.837,5.789,4.685,9.679,4.876c-0.081-0.333-0.112-0.717-0.112-1.051
	c0-2.582,2.058-4.654,4.645-4.654c1.335,0,2.558,0.573,3.392,1.466c1.062-0.223,2.012-0.589,2.928-1.131
	c-0.338,1.1-1.118,2.009-2.1,2.583c0.949-0.129,1.776-0.383,2.611-0.734C33.686,18.123,32.514,18.967,31.818,19.604z"/>
<path fill="#E2B22D" d="M33.814,15.365c-0.916,0.542-1.865,0.909-2.928,1.131c-0.834-0.893-2.057-1.466-3.392-1.466
	c-2.587,0-4.645,2.072-4.645,4.654c0,0.334,0.031,0.718,0.112,1.051c-3.89-0.191-7.363-2.039-9.679-4.876
	c-0.386,0.718-0.611,1.515-0.611,2.343c0,1.625,1.03,3.028,2.284,3.857c-0.772,0-1.187-0.225-1.881-0.575v0.048
	c0,2.264,1.383,4.112,3.52,4.574c-0.385,0.112-0.916,0.144-1.334,0.144c-0.305,0-0.667-0.031-0.94-0.08
	c0.578,1.849,2.302,3.109,4.328,3.141c-1.608,1.243-3.599,2.119-5.818,2.119c-0.369,0-0.762-0.047-1.099-0.079
	c2.058,1.323,4.352,2.04,6.973,2.04c8.617,0,13.113-7.061,13.113-13.181v-0.605c0.695-0.637,1.867-1.481,2.508-2.391
	c-0.835,0.351-1.662,0.605-2.611,0.734C32.696,17.374,33.477,16.465,33.814,15.365z"/>
</svg>
